<?xml version="1.0" encoding="UTF-8"?>
<svg id="Layer_1" data-name="Layer 1" xmlns="http://www.w3.org/2000/svg" viewBox="0 0 267.84 421.2">
  <defs>
    <style>
      .cls-1 {
        stroke-width: 0px;
      }
    </style>
  </defs>
  <g>
    <path class="cls-1" d="M82.09,239.1h-39.11v-110.02h88.58c7.06,0,12.18,1.81,15.34,5.42,3.16,3.61,5.04,8.87,5.63,15.79h2.2v-47.06h-2.2c-.59,6.92-2.47,12.19-5.63,15.79-3.16,3.61-8.28,5.42-15.34,5.42H42.99V21.92h73.78c16.93-.45,29.59,1.22,38,4.97,8.4,3.75,15.02,12.27,19.88,25.52l2.65-.45-5.31-34.69H12.48v2.22c6.78.73,10.89,1.95,12.37,3.65,1.47,1.7,2.2,4.24,2.2,7.62v199.26c0,3.4-.73,5.94-2.2,7.62-1.48,1.7-5.6,2.91-12.37,3.65v2.22h69.81c-.3-1.45-.38-2.93-.23-4.42l.04.02Z"/>
    <path class="cls-1" d="M181.06,203.54c-3.97,10.6-8.92,18.45-14.81,23.53-5.9,5.08-13.84,8.37-23.85,9.83-9.3,1.38-21.49,2.09-36.51,2.2.11,1.48-.04,2.99-.39,4.43h72.02l6.19-39.55-2.65-.45h0Z"/>
  </g>
  <path class="cls-1" d="M185.85,403.93c-13.71,0-26.12-1.95-37.23-5.85-11.12-3.9-20.67-8.94-28.68-15.14-8.01-6.2-14.25-12.98-18.72-20.35v23.6c0,3.33.72,5.81,2.16,7.47s5.49,2.86,12.12,3.58v2.16h-44.17v-2.16c6.63-.72,10.67-1.91,12.12-3.58s2.16-4.15,2.16-7.47v-195.26c0-3.33-.72-5.81-2.16-7.47s-5.49-2.84-12.12-3.58v-2.16h100.01c15.88,0,28.93,2.45,39.18,7.37,10.25,4.9,17.86,11.52,22.83,19.81,4.99,8.3,7.47,17.51,7.47,27.61,0,7.51-1.77,14.18-5.29,20.03-3.54,5.85-8.37,10.96-14.5,15.36s-13.18,8.33-21.1,11.8c17.9,6.92,31.61,15.81,41.13,26.62,9.53,10.82,14.29,24.25,14.29,40.27,0,11.12-2.49,20.99-7.47,29.65-4.97,8.65-12.59,15.45-22.83,20.35-10.25,4.9-23.32,7.35-39.18,7.35h-.02ZM195.39,277.94c2.88-1.14,6.56-3.5,11.03-7.05,4.47-3.54,8.55-8.44,12.23-14.72,3.68-6.28,5.53-14.18,5.53-23.71,0-17.45-4.68-30.2-14.07-38.21-9.39-8.01-22.3-12.02-38.75-12.02h-70.13v76.19c37.8,4.33,69.2,10.82,94.16,19.49v.02ZM185.64,399.39c16.45,0,29.4-4.26,38.85-12.77,9.44-8.51,14.18-21.87,14.18-40.05,0-29.88-15.38-51.09-46.11-63.64-21.8-9.23-52.25-15.81-91.35-19.7v80.96c0,7.8,3.68,15.99,11.03,24.57,7.37,8.58,17.43,15.84,30.2,21.76,12.77,5.92,27.16,8.87,43.18,8.87h.02Z"/>
</svg>